<svg width="73" height="72" viewBox="0 0 73 72" fill="none" xmlns="http://www.w3.org/2000/svg">
<g filter="url(#filter0_d_136_84)">
<circle cx="36.5" cy="34" r="32" fill="white"/>
</g>
<path fill-rule="evenodd" clip-rule="evenodd" d="M44.146 19.9052L45.7288 19.9875C46.4691 20.025 47.0433 20.6624 47.0043 21.4012L46.9286 22.8678C47.6373 23.1193 48.2989 23.464 48.9025 23.8838L50.0486 22.8509C50.5992 22.3547 51.4542 22.3981 51.9511 22.9494L53.0119 24.1257C53.5089 24.6763 53.4641 25.532 52.9142 26.0282L51.6843 27.139C51.9857 27.7602 52.2121 28.4248 52.3532 29.1188L54.0419 29.2063C54.7822 29.2438 55.3563 29.8797 55.3181 30.6207L55.2365 32.2028C55.199 32.9431 54.5616 33.5172 53.8221 33.479L52.1165 33.3908C51.9045 34.0509 51.6111 34.6821 51.2432 35.2698L52.3731 36.5232C52.8693 37.0731 52.8252 37.9296 52.2746 38.4258L51.0983 39.4874C50.5477 39.9836 49.692 39.938 49.1958 39.3888L48.1276 38.2052C47.5005 38.5478 46.8257 38.8125 46.1177 38.9867V34.8574C47.5887 34.2163 48.651 32.7857 48.7393 31.0743C48.8635 28.6637 47.0102 26.609 44.5996 26.4848C43.1484 26.4105 41.8259 27.0523 40.9761 28.1014H36.1116C36.363 27.3581 36.7144 26.6641 37.1496 26.0326L36.3762 25.1755C35.88 24.6256 35.9241 23.7691 36.474 23.2729L37.6517 22.2113C38.2009 21.7159 39.0573 21.76 39.5536 22.3099L40.3902 23.2361C41.0988 22.8877 41.8627 22.637 42.6625 22.4995L42.7309 21.1821C42.7698 20.4418 43.4057 19.8677 44.146 19.9052ZM31.5184 38.8007H29.6136C29.5526 38.8007 29.5055 38.8492 29.5055 38.9103V42.9242C29.5055 42.9852 29.5526 43.0337 29.6136 43.0337H31.5162C31.5772 43.0337 31.625 42.9852 31.625 42.9242V38.9103C31.625 38.85 31.5794 38.8007 31.5184 38.8007ZM19.1443 30.2803H25.9967V28.3866C25.9967 27.8161 26.4628 27.35 27.0325 27.35H34.0995C34.6692 27.35 35.1353 27.8161 35.1353 28.3866V30.2803H41.9876C42.789 30.2803 43.4513 30.9434 43.4513 31.744V35.2801C41.7965 36.4144 40.0895 37.3811 38.3295 38.17C36.56 38.9625 34.7354 39.577 32.8475 40.0012V38.5875C32.8475 37.9347 32.3219 37.4083 31.6691 37.4083H29.4607C28.8079 37.4083 28.2823 37.9347 28.2823 38.5875V39.9689C26.4451 39.5476 24.6646 38.9441 22.9385 38.17C21.1307 37.3606 19.3789 36.36 17.6807 35.1853V31.744C17.6807 30.942 18.343 30.2803 19.1443 30.2803ZM43.4513 37.3775V46.9741C43.4514 47.1662 43.4133 47.3563 43.3392 47.5335C43.2652 47.7107 43.1566 47.8714 43.0198 48.0063C42.7529 48.2716 42.3876 48.4378 41.9876 48.4378H19.1443C18.74 48.4378 18.3754 48.2716 18.1129 48.0063C17.8461 47.7394 17.6807 47.3748 17.6807 46.9741V37.2893C19.1252 38.2155 20.6124 39.0257 22.1416 39.7108C24.1154 40.5967 26.1621 41.2738 28.2837 41.7266V43.2469C28.2837 43.8997 28.8101 44.4261 29.4629 44.4261H31.6713C32.3234 44.4261 32.8497 43.8997 32.8497 43.2469V41.7546C35.0118 41.3017 37.1143 40.6136 39.1294 39.7094C40.61 39.0463 42.0501 38.2663 43.4513 37.3775ZM27.825 28.7615C27.7552 28.7615 27.6934 28.824 27.6934 28.8938V30.2399H33.4371V28.8938C33.4371 28.8233 33.3746 28.7615 33.3055 28.7615H27.825Z" fill="#3E3E3E"/>
<defs>
<filter id="filter0_d_136_84" x="0.5" y="0" width="72" height="72" filterUnits="userSpaceOnUse" color-interpolation-filters="sRGB">
<feFlood flood-opacity="0" result="BackgroundImageFix"/>
<feColorMatrix in="SourceAlpha" type="matrix" values="0 0 0 0 0 0 0 0 0 0 0 0 0 0 0 0 0 0 127 0" result="hardAlpha"/>
<feOffset dy="2"/>
<feGaussianBlur stdDeviation="2"/>
<feComposite in2="hardAlpha" operator="out"/>
<feColorMatrix type="matrix" values="0 0 0 0 0 0 0 0 0 0 0 0 0 0 0 0 0 0 0.25 0"/>
<feBlend mode="normal" in2="BackgroundImageFix" result="effect1_dropShadow_136_84"/>
<feBlend mode="normal" in="SourceGraphic" in2="effect1_dropShadow_136_84" result="shape"/>
</filter>
</defs>
</svg>
