<svg width="73" height="72" viewBox="0 0 73 72" fill="none" xmlns="http://www.w3.org/2000/svg">
<g filter="url(#filter0_d_136_142)">
<circle cx="36.5" cy="34" r="32" fill="white"/>
</g>
<g clip-path="url(#clip0_136_142)">
<path d="M36.0656 13.9557C41.2981 13.9 46.0584 15.9857 49.5244 19.4047C52.9897 22.8229 55.1621 27.5743 55.2182 32.847C55.2734 38.1197 53.2036 42.9166 49.8114 46.4084C49.26 46.9751 48.0893 47.8922 47.3706 48.4526L47.3698 48.4071L47.3644 48.2378C47.3169 47.5097 47.1474 46.8074 46.8324 46.1623C47.3877 45.721 47.9485 45.2515 48.2853 44.9043C51.2963 41.8059 53.1336 37.5491 53.083 32.8697C53.0332 28.1904 51.1065 23.9743 48.0318 20.9418C44.9562 17.9084 40.7318 16.0571 36.0889 16.1072C31.4453 16.1574 27.2613 18.0989 24.2519 21.1981C23.0471 22.4373 22.0304 23.863 21.2479 25.4275C20.3363 25.5019 19.4496 25.7238 18.622 26.078C19.5585 23.6749 20.964 21.5084 22.7266 19.6939C26.1187 16.2013 30.8331 14.0129 36.0656 13.9557ZM25.512 39.9585C26.3769 41.2792 27.3555 42.538 28.558 43.6839C29.9441 45.0133 31.6436 46.1976 33.8169 47.1695C33.9771 47.2385 34.1257 47.2314 34.2548 47.1695C34.6997 46.9681 35.0957 46.3739 35.3578 45.9734C36.1115 44.8518 37.0465 43.4598 38.5026 44.0515C38.536 44.0656 38.5593 44.0797 38.5912 44.0939L43.476 46.5809C43.4923 46.5887 43.5087 46.6036 43.525 46.6099C44.1722 47.0088 44.4654 47.6633 44.5144 48.4181C44.5549 49.1886 44.3207 50.0696 43.9458 50.8236C42.4314 53.8758 37.6913 54.5248 34.6935 53.7715C32.6393 53.2519 29.7341 51.7399 27.8735 50.4889C25.0391 48.5686 22.1074 45.7312 20.1286 42.5411C18.4664 39.8621 17.4809 36.9267 17.7811 34.0635C17.9476 32.4919 18.5356 31.0395 19.6402 30.0418C20.6039 29.1686 21.9379 28.6466 23.7028 28.7085C23.905 28.7132 24.0917 28.8222 24.1944 28.9891L27.5071 33.9992C27.9839 34.5573 28.0687 35.1287 27.8579 35.7165C27.6806 36.1986 27.2971 36.654 26.7651 37.0929C26.2432 37.5945 24.9457 38.3775 25.0756 39.1794C25.1161 39.4302 25.3603 39.7265 25.512 39.9585ZM36.1745 32.4512C36.5665 32.651 36.8909 32.9599 37.1102 33.34L40.2931 33.3408C40.1772 33.0625 40.2083 32.731 40.4044 32.4763C40.6937 32.0985 41.2304 32.0295 41.6053 32.3195L43.4978 33.7915C43.714 33.9592 43.8276 34.2124 43.8307 34.4687V34.4906C43.8276 34.7462 43.714 34.9986 43.4978 35.1671L41.6053 36.6398C41.4255 36.7795 41.198 36.8416 40.9728 36.8123C40.7476 36.7831 40.5432 36.6649 40.4044 36.4839C40.3115 36.3628 40.2522 36.219 40.2327 36.0672C40.2131 35.9154 40.234 35.7611 40.2931 35.6201L37.1102 35.6193C36.719 36.2958 35.9917 36.7504 35.1602 36.7504C33.9157 36.7504 32.9076 35.733 32.9076 34.4789C32.9076 33.6935 33.3035 33.0014 33.9056 32.593L33.9328 28.2053C33.6481 28.3307 33.3059 28.2962 33.0492 28.0854C32.682 27.7852 32.6268 27.242 32.9232 26.8728L34.4252 24.9995C34.5885 24.7973 34.8242 24.6891 35.0638 24.6813L35.0661 24.6805H35.0832C35.3523 24.6766 35.6199 24.7989 35.7903 25.0332L37.2082 26.9716C37.4875 27.3549 37.405 27.8957 37.0247 28.1771C36.7781 28.3597 36.4662 28.3887 36.2017 28.2829L36.1745 32.4512ZM27.0716 22.2719C26.8102 21.8141 26.9673 21.2302 27.4216 20.9668C27.8758 20.7035 28.4553 20.8626 28.7159 21.3195L29.426 22.5572C29.6866 23.0157 29.5303 23.6004 29.076 23.8638C28.6218 24.1264 28.0407 23.9688 27.7809 23.5111L27.0716 22.2719ZM48.2239 40.9727C48.6781 41.2377 48.8329 41.8247 48.5685 42.2817C48.3063 42.7394 47.7245 42.8954 47.2703 42.6297L46.0421 41.9157C45.5878 41.6499 45.4323 41.0637 45.6952 40.6051C45.9588 40.1497 46.5407 39.993 46.9949 40.2579L48.2239 40.9727ZM49.6932 33.5234C50.2175 33.5234 50.6429 33.9514 50.6429 34.4789C50.6429 35.0064 50.2175 35.4351 49.6932 35.4351H48.2752C47.751 35.4351 47.3255 35.0064 47.3255 34.4789C47.3255 33.9514 47.751 33.5234 48.2752 33.5234H49.6932ZM47.2734 26.3281C47.7284 26.0647 48.3087 26.2223 48.5685 26.6808C48.8306 27.137 48.6727 27.7225 48.2192 27.985L46.9895 28.6991C46.536 28.9625 45.9565 28.8049 45.6952 28.3472C45.4338 27.8902 45.5902 27.3047 46.0452 27.0421L47.2734 26.3281ZM41.6045 21.3164C41.8667 20.8587 42.4493 20.7019 42.9035 20.9676C43.357 21.2325 43.5118 21.818 43.2489 22.2766L42.5395 23.515C42.2766 23.9727 41.694 24.1279 41.2397 23.8638C40.787 23.5981 40.6315 23.0118 40.8944 22.554L41.6045 21.3164ZM34.2113 19.8342C34.2113 19.3067 34.636 18.8788 35.1602 18.8788C35.6837 18.8788 36.1084 19.3067 36.1084 19.8342V21.2647C36.1084 21.7922 35.6837 22.2201 35.1602 22.2201C34.636 22.2201 34.2113 21.7922 34.2113 21.2647V19.8342Z" fill="#3E3E3E"/>
</g>
<defs>
<filter id="filter0_d_136_142" x="0.5" y="0" width="72" height="72" filterUnits="userSpaceOnUse" color-interpolation-filters="sRGB">
<feFlood flood-opacity="0" result="BackgroundImageFix"/>
<feColorMatrix in="SourceAlpha" type="matrix" values="0 0 0 0 0 0 0 0 0 0 0 0 0 0 0 0 0 0 127 0" result="hardAlpha"/>
<feOffset dy="2"/>
<feGaussianBlur stdDeviation="2"/>
<feComposite in2="hardAlpha" operator="out"/>
<feColorMatrix type="matrix" values="0 0 0 0 0 0 0 0 0 0 0 0 0 0 0 0 0 0 0.25 0"/>
<feBlend mode="normal" in2="BackgroundImageFix" result="effect1_dropShadow_136_142"/>
<feBlend mode="normal" in="SourceGraphic" in2="effect1_dropShadow_136_142" result="shape"/>
</filter>
<clipPath id="clip0_136_142">
<rect width="40.7273" height="40.7273" fill="white" transform="translate(16.1367 13.6365)"/>
</clipPath>
</defs>
</svg>
