<svg width="73" height="72" viewBox="0 0 73 72" fill="none" xmlns="http://www.w3.org/2000/svg">
<g filter="url(#filter0_d_136_90)">
<circle cx="36.5" cy="34" r="32" fill="white"/>
</g>
<path fill-rule="evenodd" clip-rule="evenodd" d="M50.221 50.5279L46.4983 49.8597L44.6496 53.1656C43.3101 54.8265 42.4605 52.0965 42.0851 51.1452L38.4928 44.3679C39.3201 44.0815 40.3192 43.2511 41.3564 42.322C43.4024 42.3633 45.3083 42.0038 46.7114 40.222L50.8478 48.202L51.2074 48.9656C51.4874 49.9615 51.341 50.6202 50.2528 50.5279H50.221ZM22.641 50.5279L26.3637 49.8597L28.2283 53.1656C29.5678 54.8265 30.4174 52.0965 30.7928 51.1452L34.3692 44.3679C33.5419 44.0815 32.5428 43.2511 31.5055 42.322C29.4596 42.3633 27.5537 42.0038 26.1505 40.222L22.0142 48.202L21.6705 48.9561C21.3874 49.952 21.5369 50.6106 22.641 50.5183V50.5279ZM43.9783 17.1379C44.2149 17.228 44.4312 17.3643 44.6146 17.5388L46.4346 19.2188C46.618 19.3909 46.7689 19.5946 46.8801 19.8202C46.9913 20.0519 47.0521 20.3046 47.0583 20.5615C47.0666 20.8186 47.0245 21.0748 46.9342 21.3156C46.8444 21.5554 46.7032 21.7726 46.5205 21.952L46.2787 22.2161C46.6777 22.9212 46.9979 23.6681 47.2333 24.4433H47.4083C47.6653 24.4314 47.922 24.4725 48.1624 24.5642C48.3992 24.6553 48.6156 24.7927 48.7987 24.9683C48.984 25.139 49.1323 25.3459 49.2346 25.5761C49.3393 25.8054 49.3987 26.0528 49.4096 26.3047L49.5019 28.8088C49.5158 29.0595 49.479 29.3105 49.3937 29.5466C49.3085 29.7828 49.1764 29.9994 49.0055 30.1833C48.8321 30.3729 48.6221 30.5255 48.3883 30.632C48.1542 30.7346 47.9024 30.7908 47.6469 30.7974H47.2842C47.0648 31.57 46.7629 32.3167 46.3837 33.0247L46.5142 33.1392L46.5492 33.1742C46.7302 33.3495 46.8742 33.5594 46.9724 33.7915C47.075 34.0211 47.1312 34.2688 47.1378 34.5202C47.1475 34.769 47.1097 35.0173 47.0264 35.252C46.9409 35.4858 46.8125 35.7016 46.6478 35.8883L46.6255 35.9106L44.9328 37.7274C44.7634 37.9184 44.558 38.0741 44.3283 38.1856C44.092 38.2968 43.8352 38.3575 43.5742 38.3638C43.3141 38.3708 43.055 38.3287 42.8105 38.2397C42.5711 38.1492 42.3541 38.0081 42.1742 37.8261L41.9101 37.5652C41.2152 37.9535 40.4801 38.2651 39.7178 38.4942V38.6756C39.7321 38.932 39.6898 39.1884 39.5937 39.4265C39.5065 39.6646 39.3699 39.8815 39.1928 40.0629C39.023 40.2491 38.8159 40.3976 38.5851 40.4988C38.357 40.6044 38.1107 40.665 37.8596 40.677L35.3555 40.7661C35.1004 40.7829 34.8446 40.7472 34.6038 40.6613C34.363 40.5754 34.1424 40.441 33.9555 40.2665C33.7669 40.0922 33.6145 39.8825 33.5069 39.6492C33.3981 39.4162 33.3344 39.1646 33.3192 38.9079V38.542C32.5463 38.3234 31.7995 38.0215 31.0919 37.6415L30.971 37.772L30.9392 37.807C30.7648 37.9891 30.5546 38.1331 30.3219 38.2302C29.8604 38.4318 29.3398 38.4511 28.8646 38.2842C28.6315 38.1972 28.416 38.069 28.2283 37.9056L28.206 37.8833L26.3828 36.1683C26.1993 35.9939 26.0485 35.7881 25.9374 35.5606C25.8287 35.328 25.7681 35.0758 25.7592 34.8193C25.7545 34.5635 25.7966 34.309 25.8833 34.0683C25.9804 33.8324 26.1207 33.6166 26.2969 33.432L26.5546 33.1552C26.1681 32.4583 25.8567 31.7223 25.6255 30.9597H25.4474C25.191 30.974 24.9346 30.9317 24.6964 30.8356C24.4591 30.7469 24.2425 30.6105 24.0601 30.4347C23.8756 30.2634 23.7273 30.0567 23.6242 29.827C23.5213 29.597 23.462 29.3499 23.4492 29.0983L23.3569 26.5942C23.3431 26.34 23.3765 26.0854 23.4555 25.8433C23.5486 25.6082 23.6845 25.3924 23.8564 25.207C24.0299 25.0149 24.2397 24.8592 24.4737 24.7488C24.7083 24.6476 24.9598 24.5915 25.2151 24.5833H25.5778C25.7985 23.8107 26.1015 23.0641 26.4814 22.3561L26.3637 22.2288C26.1714 22.0578 26.0183 21.8473 25.9151 21.6115C25.8053 21.3793 25.7446 21.1269 25.7369 20.8702C25.7252 20.6139 25.7674 20.3581 25.861 20.1192C25.9516 19.8829 26.0879 19.6667 26.2619 19.4829L27.9419 17.6533C28.1134 17.4646 28.3184 17.3092 28.5464 17.1952C28.7789 17.0863 29.0313 17.0268 29.2878 17.0202C29.5433 17.0116 29.7981 17.0516 30.0387 17.1379C30.2785 17.2276 30.4957 17.3688 30.6751 17.5515L30.9583 17.8124C31.6518 17.426 32.3846 17.1145 33.1442 16.8833V16.6924C33.1314 16.4361 33.1737 16.1801 33.2683 15.9415C33.3584 15.7049 33.4947 15.4886 33.6692 15.3052C33.8379 15.1175 34.0438 14.9669 34.2737 14.8629C34.5019 14.7576 34.7482 14.6971 34.9992 14.6847L37.5001 14.5924C37.7562 14.5827 38.0118 14.6205 38.2542 14.7038C38.493 14.7909 38.7101 14.9288 38.8905 15.1079C39.0899 15.2771 39.2514 15.4863 39.3646 15.722C39.4658 15.9565 39.5219 16.208 39.5301 16.4633V16.8261C40.3025 17.0459 41.0492 17.3478 41.7574 17.7265L41.8687 17.6088C42.0398 17.4174 42.2504 17.2654 42.486 17.1633C42.7179 17.0528 42.9705 16.9921 43.2274 16.9852C43.4833 16.9739 43.7388 17.015 43.9783 17.1061V17.1379ZM33.5833 25.7288L35.3937 27.4342L39.0274 23.7242C39.3869 23.3583 39.6128 23.0688 40.0551 23.5238L41.4964 24.997C41.9705 25.4647 41.9451 25.7383 41.4964 26.1743L36.2114 31.3638C35.2569 32.2865 35.4351 32.3438 34.4837 31.3988L31.1555 28.0897C31.1122 28.0474 31.0785 27.9962 31.0569 27.9396C31.0352 27.883 31.026 27.8225 31.0299 27.762C31.0338 27.7016 31.0508 27.6427 31.0796 27.5894C31.1084 27.5361 31.1485 27.4897 31.1969 27.4533L32.8674 25.7224C33.1219 25.4615 33.3224 25.4774 33.5833 25.7224V25.7288ZM34.8242 19.6833C36.4058 19.3654 38.0462 19.5235 39.538 20.1377C41.0297 20.7519 42.3059 21.7946 43.2052 23.134C44.1044 24.4734 44.5864 26.0493 44.5902 27.6626C44.5939 29.2758 44.1193 30.854 43.2262 32.1975C42.3332 33.5411 41.0619 34.5897 39.573 35.2108C38.0841 35.8319 36.4445 35.9977 34.8614 35.6871C33.2783 35.3765 31.8228 34.6035 30.679 33.4659C29.5351 32.3282 28.7543 30.877 28.4351 29.2956C28.2234 28.2449 28.2208 27.1629 28.4274 26.1112C28.6339 25.0595 29.0456 24.0588 29.6389 23.1662C30.2321 22.2737 30.9954 21.5067 31.8851 20.9091C32.7748 20.3115 33.7735 19.895 34.8242 19.6833Z" fill="#3E3E3E"/>
<defs>
<filter id="filter0_d_136_90" x="0.5" y="0" width="72" height="72" filterUnits="userSpaceOnUse" color-interpolation-filters="sRGB">
<feFlood flood-opacity="0" result="BackgroundImageFix"/>
<feColorMatrix in="SourceAlpha" type="matrix" values="0 0 0 0 0 0 0 0 0 0 0 0 0 0 0 0 0 0 127 0" result="hardAlpha"/>
<feOffset dy="2"/>
<feGaussianBlur stdDeviation="2"/>
<feComposite in2="hardAlpha" operator="out"/>
<feColorMatrix type="matrix" values="0 0 0 0 0 0 0 0 0 0 0 0 0 0 0 0 0 0 0.25 0"/>
<feBlend mode="normal" in2="BackgroundImageFix" result="effect1_dropShadow_136_90"/>
<feBlend mode="normal" in="SourceGraphic" in2="effect1_dropShadow_136_90" result="shape"/>
</filter>
</defs>
</svg>
