<svg width="73" height="72" viewBox="0 0 73 72" fill="none" xmlns="http://www.w3.org/2000/svg">
<g filter="url(#filter0_d_136_96)">
<circle cx="36.5" cy="34" r="32" fill="white"/>
</g>
<g clip-path="url(#clip0_136_96)">
<path d="M25.284 41.6459C25.284 42.1804 24.8513 42.6099 24.3199 42.6099C23.7854 42.6099 23.3558 42.1772 23.3558 41.6459C23.3558 37.9772 24.8417 34.6554 27.2472 32.2499C29.6526 29.8445 32.9745 28.3586 36.6431 28.3586C40.3117 28.3586 43.6335 29.8445 46.039 32.2499C48.4445 34.6554 49.9304 37.9772 49.9304 41.6459C49.9304 42.1804 49.4976 42.6099 48.9663 42.6099C48.4349 42.6099 48.0022 42.1772 48.0022 41.6459C48.0022 38.5086 46.7326 35.6704 44.6772 33.6149C42.6217 31.5595 39.7835 30.2899 36.6463 30.2899C33.509 30.2899 30.6708 31.5627 28.6154 33.6149C26.5535 35.6704 25.284 38.5118 25.284 41.6459ZM45.0335 48.4359C44.9826 46.9149 45.0685 46.8927 43.2899 46.2277C42.2463 45.8363 40.9131 45.3399 39.9554 44.7449C38.829 45.7886 38.1067 46.9818 38.0813 48.4359H45.0335ZM28.2463 48.4359C28.2972 46.9149 28.2113 46.8927 29.9899 46.2277C31.0335 45.8363 32.3667 45.3399 33.3245 44.7449C34.4508 45.7886 35.1731 46.9818 35.1985 48.4359H28.2463ZM34.3745 43.3099C34.4222 42.9249 33.2831 41.4645 33.0763 40.7613C32.6308 40.0549 32.4717 38.9286 32.9585 38.1809C33.1526 37.8849 33.0699 37.3536 33.0699 36.9463C33.0699 32.8768 40.2004 32.8736 40.2004 36.9463C40.2004 37.4618 40.0826 37.8531 40.3626 38.2572C40.8304 38.9349 40.5885 40.1345 40.194 40.7645C39.9426 41.4995 38.7495 42.8931 38.8322 43.3131C38.9022 45.4004 34.3585 45.3304 34.3745 43.3099ZM56.189 30.9072L54.5535 33.0199L55.7149 35.4254L53.2013 34.5218L51.2731 36.3704L51.3558 33.7009L49.0013 32.4377L51.5658 31.6899L52.0399 29.0586L53.5417 31.2668L56.189 30.9072ZM47.8845 22.5995L47.5249 25.2468L49.7331 26.7518L47.1049 27.229L46.3572 29.7936L45.094 27.439L42.4245 27.5218L44.2731 25.5936L43.3663 23.0768L45.7717 24.2381L47.8845 22.5995ZM17.0908 30.9072L19.7381 31.2668L21.2431 29.0586L21.7204 31.6868L24.2849 32.4345L21.9304 33.6977L22.0131 36.3672L20.0817 34.5186L17.5649 35.4222L18.7263 33.0168L17.0908 30.9072ZM25.3954 22.5995L27.5081 24.2349L29.9135 23.0736L29.0131 25.5872L30.8617 27.5154L28.1922 27.4327L26.929 29.7872L26.1813 27.2227L23.5499 26.7486L25.7581 25.2436L25.3954 22.5995ZM36.6399 19.6818L37.6517 22.154L40.3149 22.3513L38.2785 24.079L38.9149 26.6754L36.6431 25.269L34.3713 26.6754L35.0076 24.079L32.9649 22.3513L35.6281 22.154L36.6399 19.6818Z" fill="#3E3E3E"/>
</g>
<defs>
<filter id="filter0_d_136_96" x="0.5" y="0" width="72" height="72" filterUnits="userSpaceOnUse" color-interpolation-filters="sRGB">
<feFlood flood-opacity="0" result="BackgroundImageFix"/>
<feColorMatrix in="SourceAlpha" type="matrix" values="0 0 0 0 0 0 0 0 0 0 0 0 0 0 0 0 0 0 127 0" result="hardAlpha"/>
<feOffset dy="2"/>
<feGaussianBlur stdDeviation="2"/>
<feComposite in2="hardAlpha" operator="out"/>
<feColorMatrix type="matrix" values="0 0 0 0 0 0 0 0 0 0 0 0 0 0 0 0 0 0 0.25 0"/>
<feBlend mode="normal" in2="BackgroundImageFix" result="effect1_dropShadow_136_96"/>
<feBlend mode="normal" in="SourceGraphic" in2="effect1_dropShadow_136_96" result="shape"/>
</filter>
<clipPath id="clip0_136_96">
<rect width="40.7273" height="40.7273" fill="white" transform="translate(16.1367 13.6364)"/>
</clipPath>
</defs>
</svg>
