<svg width="73" height="72" viewBox="0 0 73 72" fill="none" xmlns="http://www.w3.org/2000/svg">
<g filter="url(#filter0_d_136_103)">
<circle cx="36.5" cy="34" r="32" fill="white"/>
</g>
<path fill-rule="evenodd" clip-rule="evenodd" d="M37.5697 15.3673C39.8905 16.8893 42.3928 18.1143 45.0184 19.0137C46.9665 19.6913 49.0313 19.9694 51.0893 19.8314L53.2243 19.6373L53.3293 21.7819C53.7206 29.6696 52.4479 36.5232 49.7784 41.9291C47.0007 47.5546 42.7306 51.6178 37.2484 53.6796H35.8229C30.4647 51.7228 26.2266 47.7709 23.4138 42.0755C20.7888 36.73 19.4429 29.8255 19.6593 21.5909L19.7166 19.475L21.8197 19.5832C24.1093 19.7318 26.4075 19.4962 28.6193 18.8864C31.0135 18.187 33.2492 17.0297 35.2025 15.4787L36.3447 14.5909L37.5697 15.3673ZM36.4784 20.7319C40.7834 23.4619 44.6716 24.7537 48.0093 24.4546C48.5916 36.2273 44.2388 45.2255 36.5229 48.1305C29.0679 45.41 24.6611 36.7237 24.9888 24.2669C28.9057 24.4737 32.7525 23.6305 36.4784 20.7319ZM34.1175 34.1941C34.4145 34.4475 34.6951 34.7196 34.9575 35.0087C35.7507 33.7298 36.6298 32.5062 37.5888 31.3464C40.2106 28.1805 39.4279 28.3873 43.0647 28.3873L42.5461 28.9473C41.1807 30.4789 39.926 32.1057 38.7916 33.8155C37.5304 35.6392 36.3869 37.5416 35.3679 39.5109L35.0497 40.1187L34.7602 39.5014C34.2459 38.3789 33.5951 37.3241 32.8225 36.3609C32.1254 35.4802 31.2931 34.7156 30.3566 34.0955C30.8307 32.5396 33.0897 33.3382 34.1016 34.1941H34.1175ZM36.4657 17.1078C41.9957 20.6078 46.9879 22.2687 51.277 21.8805C52.0247 37.0228 46.4311 48.0255 36.5229 51.7578C26.9552 48.2609 21.2947 37.6432 21.7147 21.6482C26.7452 21.9091 31.6834 20.8241 36.4657 17.1078Z" fill="#3E3E3E"/>
<defs>
<filter id="filter0_d_136_103" x="0.5" y="0" width="72" height="72" filterUnits="userSpaceOnUse" color-interpolation-filters="sRGB">
<feFlood flood-opacity="0" result="BackgroundImageFix"/>
<feColorMatrix in="SourceAlpha" type="matrix" values="0 0 0 0 0 0 0 0 0 0 0 0 0 0 0 0 0 0 127 0" result="hardAlpha"/>
<feOffset dy="2"/>
<feGaussianBlur stdDeviation="2"/>
<feComposite in2="hardAlpha" operator="out"/>
<feColorMatrix type="matrix" values="0 0 0 0 0 0 0 0 0 0 0 0 0 0 0 0 0 0 0.25 0"/>
<feBlend mode="normal" in2="BackgroundImageFix" result="effect1_dropShadow_136_103"/>
<feBlend mode="normal" in="SourceGraphic" in2="effect1_dropShadow_136_103" result="shape"/>
</filter>
</defs>
</svg>
