<svg width="73" height="72" viewBox="0 0 73 72" fill="none" xmlns="http://www.w3.org/2000/svg">
<g filter="url(#filter0_d_136_109)">
<circle cx="36.5" cy="34" r="32" fill="white"/>
</g>
<path d="M42.6009 34.2817L42.4417 34.7676L42.4177 34.809L42.3966 34.8357C42.2006 34.8859 41.9984 34.9089 41.7959 34.9038C41.9821 34.3682 42.0447 33.7984 41.9791 33.2359C41.9728 33.1594 41.9864 33.0826 42.0184 33.0126C42.0504 32.9427 42.1 32.8819 42.1624 32.836C42.5005 32.5824 42.7503 32.2314 42.8772 31.8317L42.9764 31.0585C42.9688 30.953 42.9497 30.8487 42.9193 30.7474C42.9193 30.7118 42.8953 30.6852 42.8862 30.6615H42.8082C42.6915 30.6547 42.5819 30.6044 42.5016 30.5207C42.4212 30.4371 42.3762 30.3264 42.3756 30.2112C42.3906 28.7536 42.2344 27.8411 41.9641 27.2101C41.5076 26.4487 40.8017 26.0636 39.9607 25.6488C39.8135 25.5866 39.6603 25.5185 39.5101 25.4415C36.7678 28.2677 34.497 24.6327 31.244 30.1075H31.1329C31.0908 30.2023 31.0458 30.2971 31.0037 30.4037L30.9797 30.4511C30.9188 30.5552 30.8184 30.6312 30.7007 30.6623C30.5829 30.6934 30.4575 30.6771 30.3519 30.617C30.2778 30.5756 30.2358 30.5578 30.2258 30.5637C30.2078 30.5637 30.1867 30.6111 30.1597 30.6733C30.1012 30.8179 30.0677 30.9711 30.0606 31.1266C30.0275 31.7665 30.2378 32.6079 30.6613 33.0137C30.7047 33.0543 30.7394 33.103 30.7637 33.1568C30.7879 33.2107 30.8011 33.2688 30.8025 33.3278C30.8505 35.283 31.7306 36.0296 32.7999 36.9391L33.2505 37.3242C34.3228 38.2663 35.4552 38.7522 36.5545 38.7522C37.6539 38.7522 38.7141 38.2959 39.7114 37.3479H40.4383H40.5163C40.6635 37.3479 40.8498 37.3479 41.06 37.3479L40.8167 37.576L40.3722 37.9908C39.1707 39.1195 37.8911 39.6646 36.5755 39.6646C35.2599 39.6646 33.8963 39.0988 32.6497 38.0056L32.2112 37.6264C31.1569 36.7376 30.2618 35.9704 29.9825 34.3054L28.5347 34.4209C28.2572 34.4613 27.9747 34.3932 27.7474 34.231C27.5202 34.0688 27.3662 33.8255 27.3182 33.5529L26.7565 29.1743C26.7416 29.0356 26.7548 28.8953 26.7954 28.7617C26.8359 28.6281 26.903 28.5038 26.9927 28.396C27.0825 28.2882 27.193 28.1991 27.318 28.1338C27.443 28.0686 27.5799 28.0285 27.7207 28.0159L28.1923 27.9774C28.1641 27.9168 28.1478 27.8514 28.1442 27.7848C27.8619 23.2373 29.8503 20.3785 32.5386 19.0068C33.9126 18.3358 35.4385 18.0244 36.9698 18.1028C38.501 18.1811 39.986 18.6465 41.2823 19.4542C43.7393 21.0154 45.3433 23.8713 44.6224 27.8441C44.6107 27.8993 44.5926 27.953 44.5683 28.0041L45.2862 28.0841C45.438 28.0994 45.5851 28.1446 45.7189 28.2169C45.8527 28.2892 45.9706 28.3872 46.0654 28.505C46.1603 28.6229 46.2303 28.7583 46.2714 28.9032C46.3124 29.0482 46.3236 29.1998 46.3044 29.3491L45.7487 33.5144C45.7012 33.8144 45.5367 34.0841 45.2904 34.2662C45.0441 34.4483 44.7354 34.5283 44.4301 34.4891C44.3483 34.8037 44.248 35.1133 44.1298 35.4164C44.0277 35.6738 43.8745 35.9084 43.6792 36.1066C43.0785 36.7169 41.1381 36.7169 40.4503 36.7169H38.6481C38.441 36.9177 38.1939 37.0741 37.9225 37.176C37.6511 37.278 37.3612 37.3234 37.0711 37.3094C36.0739 37.3094 35.2689 36.788 35.2689 36.1451C35.2689 35.5023 36.0739 34.9809 37.0711 34.9809C37.3514 34.9752 37.63 35.0243 37.8909 35.1255C38.1518 35.2267 38.3897 35.3779 38.591 35.5704H40.4383C40.9789 35.5704 42.5829 35.5704 42.8592 35.2949C42.9427 35.2098 43.008 35.109 43.0514 34.9986L43.2557 34.3706L42.6009 34.2965V34.2817ZM29.4598 26.1406C30.4811 21.442 36.0349 18.5121 41.3063 21.4954C41.7807 21.7638 42.2128 22.0992 42.5889 22.4908C42.0798 21.6511 41.3782 20.9408 40.5404 20.417C39.4522 19.7341 38.2031 19.3411 36.915 19.2764C35.6262 19.1976 34.3392 19.4562 33.1844 20.0259C31.208 21.0214 29.6761 23.024 29.4598 26.1406ZM31.4963 39.718L34.2657 46.8844L35.6594 42.9768L34.9776 42.2421C34.464 41.5014 34.6412 40.663 35.5783 40.5119C35.9207 40.4796 36.2651 40.4726 36.6086 40.4912C36.9866 40.467 37.3661 40.4819 37.741 40.5356C38.624 40.7252 38.7172 41.5696 38.2756 42.2421L37.6058 42.9768L38.9965 46.8873L41.5046 39.718C43.3068 41.3237 49.6775 41.6466 51.669 42.7398C54.4263 44.2625 54.3513 47.1836 54.955 49.9091H18.0459C18.6466 47.2102 18.5836 44.2388 21.3319 42.7398C23.7799 41.3918 29.4929 41.4955 31.4963 39.718Z" fill="#3E3E3E"/>
<defs>
<filter id="filter0_d_136_109" x="0.5" y="0" width="72" height="72" filterUnits="userSpaceOnUse" color-interpolation-filters="sRGB">
<feFlood flood-opacity="0" result="BackgroundImageFix"/>
<feColorMatrix in="SourceAlpha" type="matrix" values="0 0 0 0 0 0 0 0 0 0 0 0 0 0 0 0 0 0 127 0" result="hardAlpha"/>
<feOffset dy="2"/>
<feGaussianBlur stdDeviation="2"/>
<feComposite in2="hardAlpha" operator="out"/>
<feColorMatrix type="matrix" values="0 0 0 0 0 0 0 0 0 0 0 0 0 0 0 0 0 0 0.25 0"/>
<feBlend mode="normal" in2="BackgroundImageFix" result="effect1_dropShadow_136_109"/>
<feBlend mode="normal" in="SourceGraphic" in2="effect1_dropShadow_136_109" result="shape"/>
</filter>
</defs>
</svg>
