<svg width="73" height="72" viewBox="0 0 73 72" fill="none" xmlns="http://www.w3.org/2000/svg">
<g filter="url(#filter0_d_136_115)">
<circle cx="36.5" cy="34" r="32" fill="white"/>
</g>
<path fill-rule="evenodd" clip-rule="evenodd" d="M42.2274 19.4829C44.1702 19.7226 46.0461 20.3413 47.7471 21.3033C49.4481 22.2652 50.9406 23.5515 52.1388 25.0881C57.1869 31.5361 56.0122 40.8217 49.515 45.8316C49.5092 45.8352 49.5048 45.8396 49.4989 45.8447C43.004 50.8532 33.6484 49.688 28.6018 43.2422C28.5989 43.2378 28.5952 43.2335 28.5915 43.2298C27.9388 42.3951 27.3774 41.494 26.9166 40.5415C27.8524 40.5145 28.7821 40.3821 29.6878 40.147C29.9835 40.6619 30.3156 41.1553 30.6815 41.6236C34.8393 46.9225 42.5369 47.8722 47.8746 43.7451C53.2131 39.6194 54.1694 31.98 50.0122 26.6819C47.0585 22.9186 42.1599 21.2171 37.4858 22.3306C37.0383 21.5145 36.5001 20.7507 35.8814 20.0534C36.0617 19.9952 36.2443 19.9435 36.4284 19.8926C38.3181 19.3737 40.2922 19.2354 42.2355 19.4829H42.2274ZM17.7275 28.7633V27.6426C18.0187 23.0606 21.8531 19.4327 26.5427 19.4305H26.5463C31.4287 19.4297 35.3864 23.3553 35.3893 28.2008C35.3915 33.0462 31.4346 36.9747 26.5522 36.9769C21.8583 36.9783 18.0187 33.349 17.7275 28.7633ZM24.1785 26.3675L25.7661 27.8602L28.7323 24.8691C29.0256 24.5729 29.2097 24.3363 29.572 24.7046L30.7489 25.8981C31.1332 26.2773 31.1134 26.4978 30.7497 26.8529L26.4356 31.0558C25.6693 31.8025 25.802 31.8483 25.0247 31.0798L22.1993 28.2925C22.0387 28.1178 22.0548 27.9424 22.2308 27.7663L23.5947 26.3653C23.8008 26.1521 23.9651 26.1652 24.1785 26.3675ZM39.5523 26.9694C39.6432 26.2504 40.3032 25.7409 41.0255 25.8312H41.0285C41.7486 25.9272 42.2553 26.5822 42.1621 27.2961L41.3042 34.1437L46.0751 37.8225C46.6507 38.2665 46.7571 39.0888 46.3097 39.6623C46.0953 39.9363 45.7802 40.1148 45.4334 40.1587C45.0866 40.2038 44.7361 40.1092 44.4611 39.8952L39.1211 35.7753C38.9368 35.6432 38.7905 35.4656 38.6965 35.2601C38.5973 35.0394 38.5603 34.7962 38.5895 34.5563L39.5523 26.973V26.9694Z" fill="#3E3E3E"/>
<defs>
<filter id="filter0_d_136_115" x="0.5" y="0" width="72" height="72" filterUnits="userSpaceOnUse" color-interpolation-filters="sRGB">
<feFlood flood-opacity="0" result="BackgroundImageFix"/>
<feColorMatrix in="SourceAlpha" type="matrix" values="0 0 0 0 0 0 0 0 0 0 0 0 0 0 0 0 0 0 127 0" result="hardAlpha"/>
<feOffset dy="2"/>
<feGaussianBlur stdDeviation="2"/>
<feComposite in2="hardAlpha" operator="out"/>
<feColorMatrix type="matrix" values="0 0 0 0 0 0 0 0 0 0 0 0 0 0 0 0 0 0 0.25 0"/>
<feBlend mode="normal" in2="BackgroundImageFix" result="effect1_dropShadow_136_115"/>
<feBlend mode="normal" in="SourceGraphic" in2="effect1_dropShadow_136_115" result="shape"/>
</filter>
</defs>
</svg>
