<svg width="73" height="72" viewBox="0 0 73 72" fill="none" xmlns="http://www.w3.org/2000/svg">
<g filter="url(#filter0_d_136_121)">
<circle cx="36.5" cy="34" r="32" fill="white"/>
</g>
<path d="M36.3799 14.2727C35.2296 14.2727 34.0798 14.5246 33.2068 15.0292L21.5373 21.7664C19.792 22.7747 18.3643 25.2469 18.3643 27.2618V40.7384C18.3643 42.7537 19.792 45.2267 21.5373 46.2345L33.207 52.9731C34.0799 53.4761 35.2303 53.7273 36.38 53.7273C37.5307 53.7273 38.6811 53.4761 39.553 52.9731L51.2242 46.2345C52.969 45.2267 54.3972 42.7537 54.3972 40.7384V27.2617C54.3972 25.2468 52.969 22.7745 51.2242 21.7664L39.5537 15.0293C38.6808 14.5246 37.5306 14.2727 36.3799 14.2727ZM31.7616 25.8654L36.3807 27.6845L41.0019 25.8654L48.9629 29.1109L44.3438 30.929V38.8914L36.3807 42.1353L28.4183 38.8914V30.929L23.7978 29.1108L31.7616 25.8654ZM28.4183 30.929L36.3807 34.1721L44.3438 30.929L36.3807 27.6844L28.4183 30.929Z" fill="#3E3E3E"/>
<defs>
<filter id="filter0_d_136_121" x="0.5" y="0" width="72" height="72" filterUnits="userSpaceOnUse" color-interpolation-filters="sRGB">
<feFlood flood-opacity="0" result="BackgroundImageFix"/>
<feColorMatrix in="SourceAlpha" type="matrix" values="0 0 0 0 0 0 0 0 0 0 0 0 0 0 0 0 0 0 127 0" result="hardAlpha"/>
<feOffset dy="2"/>
<feGaussianBlur stdDeviation="2"/>
<feComposite in2="hardAlpha" operator="out"/>
<feColorMatrix type="matrix" values="0 0 0 0 0 0 0 0 0 0 0 0 0 0 0 0 0 0 0.25 0"/>
<feBlend mode="normal" in2="BackgroundImageFix" result="effect1_dropShadow_136_121"/>
<feBlend mode="normal" in="SourceGraphic" in2="effect1_dropShadow_136_121" result="shape"/>
</filter>
</defs>
</svg>
