<svg width="73" height="72" viewBox="0 0 73 72" fill="none" xmlns="http://www.w3.org/2000/svg">
<g filter="url(#filter0_d_136_128)">
<circle cx="36.5" cy="34" r="32" fill="white"/>
</g>
<path d="M19.3863 42.8224C19.6665 42.4886 19.9734 42.2204 20.3072 41.9999C20.9777 41.5559 21.7347 41.3204 22.593 41.1625C22.593 33.6703 22.593 26.1812 22.593 18.689C19.3416 19.0079 19.3625 22.0149 19.3804 24.8073C19.3833 25.1828 19.3863 25.3795 19.3863 25.4719V42.8224ZM31.1401 25.2335H36.9336H37.3836V25.6835V47.0006V47.4506H36.9336H31.1401H30.6901V47.0006V25.6835V25.2335H31.1401ZM32.3113 44.9115H33.5153V45.5403H32.3113V44.9115ZM32.3113 43.1413H33.5153V43.7701H32.3113V43.1413ZM32.3113 41.3711H33.5153V41.9999H32.3113V41.3711ZM32.3113 39.5979H33.5153V40.2267H32.3113V39.5979ZM32.3113 37.8277H34.311V38.4565H32.3113V37.8277ZM32.3113 36.0574H33.5153V36.6863H32.3113V36.0574ZM32.3113 34.2842H33.5153V34.9131H32.3113V34.2842ZM32.3113 32.514H33.5153V33.1428H32.3113V32.514ZM32.3113 30.7438H33.5153V31.3726H32.3113V30.7438ZM32.3113 28.9706H33.5153V29.5994H32.3113V28.9706ZM32.3113 27.2004H34.311V27.8292H32.3113V27.2004ZM36.4835 26.1305H31.5901V46.5476H36.4835V26.1305ZM45.737 29.6918V47.1437H41.6035V29.6918H41.5856L41.7257 29.4057L43.4333 25.898L43.6061 25.5404L43.7879 25.8921L45.6058 29.3997L45.7578 29.6918H45.737ZM42.2263 29.2895H45.1052L43.9608 27.0842H43.2992L42.2263 29.2895ZM23.636 21.8897H54.1023C54.3377 21.8897 54.5493 21.9851 54.7043 22.1401C54.8593 22.295 54.9546 22.5066 54.9546 22.7421V49.8467C54.9546 50.0791 54.8593 50.2907 54.7043 50.4457L54.7013 50.4487C54.5463 50.6036 54.3348 50.699 54.1023 50.699H23.0191C21.7466 50.699 19.9824 49.7007 19.2463 48.6487C18.5251 47.6235 18.2658 46.3062 18.3433 44.7715V25.4719C18.3433 24.9384 18.3433 24.8818 18.3433 24.8103C18.3194 21.395 18.2956 17.7026 23.0549 17.6221C23.0758 17.6191 23.0937 17.6191 23.1145 17.6191C23.4036 17.6191 23.636 17.8516 23.636 18.1407V21.8897ZM19.3804 44.8966C19.3267 46.1721 19.5353 47.245 20.0986 48.0467C20.6648 48.8543 21.6155 49.4116 23.0549 49.653H53.9116V22.9298H23.636V41.5976H23.6331C23.6331 41.8509 23.4513 42.0714 23.192 42.1102C22.286 42.2502 21.5112 42.4469 20.8794 42.8641C20.2774 43.2635 19.7797 43.8893 19.3804 44.8966Z" fill="#3E3E3E" stroke="#3E3E3E" stroke-width="0.2"/>
<defs>
<filter id="filter0_d_136_128" x="0.5" y="0" width="72" height="72" filterUnits="userSpaceOnUse" color-interpolation-filters="sRGB">
<feFlood flood-opacity="0" result="BackgroundImageFix"/>
<feColorMatrix in="SourceAlpha" type="matrix" values="0 0 0 0 0 0 0 0 0 0 0 0 0 0 0 0 0 0 127 0" result="hardAlpha"/>
<feOffset dy="2"/>
<feGaussianBlur stdDeviation="2"/>
<feComposite in2="hardAlpha" operator="out"/>
<feColorMatrix type="matrix" values="0 0 0 0 0 0 0 0 0 0 0 0 0 0 0 0 0 0 0.25 0"/>
<feBlend mode="normal" in2="BackgroundImageFix" result="effect1_dropShadow_136_128"/>
<feBlend mode="normal" in="SourceGraphic" in2="effect1_dropShadow_136_128" result="shape"/>
</filter>
</defs>
</svg>
