<svg width="97" height="96" viewBox="0 0 97 96" fill="none" xmlns="http://www.w3.org/2000/svg">
<g filter="url(#filter0_d_143_733)">
<circle cx="48.5" cy="46" r="44" fill="white"/>
</g>
<g clip-path="url(#clip0_143_733)">
<path fill-rule="evenodd" clip-rule="evenodd" d="M57.2199 59.7126C57.2199 61.9171 53.7852 63.6808 49.5551 63.6808C45.325 63.6808 41.8903 61.9171 41.8903 59.7126C41.8959 59.29 42.0172 58.877 42.2414 58.5177C43.2144 60.1402 46.1204 61.3131 49.5551 61.3131C51.8212 61.3131 55.5936 60.6473 56.8689 58.5177C57.0924 58.8772 57.2137 59.2901 57.2199 59.7126ZM39.2865 59.2981C39.2865 61.9921 35.0787 64.1835 29.8933 64.1835C24.7079 64.1835 20.5 61.9921 20.5 59.2981C20.5109 58.7818 20.6647 58.2785 20.9443 57.8431C22.1396 59.8272 25.6987 61.269 29.9066 61.269C32.6837 61.269 37.3048 60.4489 38.8688 57.8431C39.1501 58.2811 39.3039 58.7877 39.3132 59.3069L39.2865 59.2981ZM39.3398 54.2099C39.3398 56.9039 35.132 59.0953 29.9466 59.0953C24.7612 59.0953 20.5533 56.9039 20.5533 54.2099C20.5633 53.6908 20.717 53.1843 20.9977 52.7461C22.1929 54.7302 25.752 56.172 29.9599 56.172C32.737 56.172 37.3581 55.3563 38.9222 52.7461C39.2009 53.1852 39.3545 53.6911 39.3665 54.2099H39.3398ZM33.3369 41.5291L33.2258 42.7416L28.618 42.3448C29.0019 42.8277 29.2721 43.3896 29.4089 43.9894L28.2981 43.8924C28.1949 43.507 28.0267 43.1418 27.8004 42.8122C27.569 42.4456 27.2357 42.1531 26.8407 41.97L26.9295 40.9868L33.3369 41.5291ZM30.0888 39.6288C34.2833 39.6288 37.6647 40.9956 37.6647 42.6358C37.6647 44.276 34.2078 45.6385 29.9466 45.6385C25.6854 45.6385 22.2285 44.2849 22.2285 42.6314C22.2285 40.978 25.5743 39.6552 29.7422 39.6244L30.0888 39.6288ZM30.0577 38.6323C35.1897 38.6323 39.3398 40.8369 39.3398 43.5177C39.3398 46.1984 35.132 48.3986 29.9466 48.3986C24.7612 48.3986 20.5533 46.2117 20.5533 43.5133C20.5533 40.8148 24.7034 38.6632 29.8399 38.6279L30.0577 38.6323ZM39.3398 48.9586C39.3398 51.6526 35.132 53.8439 29.9466 53.8439C24.7612 53.8439 20.5533 51.6702 20.5533 48.9586C20.555 48.4649 20.69 47.9807 20.9443 47.5565C22.1041 49.567 25.6898 51.0397 29.9421 51.0397C32.7237 51.0397 37.407 50.2108 38.9355 47.5565C39.191 47.9807 39.3289 48.4644 39.3354 48.9586H39.3398ZM62.4098 45.7884C61.9843 45.8802 61.5396 45.8005 61.1734 45.5669C60.8071 45.3333 60.5494 44.9649 60.4569 44.5428C60.3644 44.1207 60.4447 43.6793 60.6801 43.3159C60.9155 42.9525 61.2867 42.6968 61.7121 42.605L64.6092 41.97L53.1098 35.3563L48.9908 39.8051C48.7557 40.0772 48.437 40.2651 48.0838 40.34C47.7306 40.4149 47.3624 40.3726 47.0357 40.2196L30.3643 32.2699C29.9835 32.0783 29.6934 31.7465 29.5559 31.3455C29.4184 30.9445 29.4444 30.506 29.6283 30.1237C29.8122 29.7414 30.1395 29.4457 30.5402 29.2997C30.9409 29.1536 31.3833 29.1689 31.7728 29.3422L47.3557 36.7628L51.6035 32.1729C51.8559 31.8996 52.1948 31.72 52.5641 31.6639C52.9333 31.6077 53.3109 31.6784 53.6341 31.8642L66.6043 39.3598L65.8933 36.1499C65.8164 35.733 65.9059 35.3028 66.143 34.9502C66.3801 34.5977 66.7462 34.3506 67.1637 34.2612C67.5812 34.1718 68.0174 34.2471 68.3799 34.4713C68.7424 34.6954 69.0028 35.0508 69.1059 35.4621L70.6122 42.2787V42.3536C70.6579 42.5633 70.6615 42.7798 70.6228 42.9908C70.5841 43.2018 70.5038 43.4031 70.3866 43.5833C70.2694 43.7635 70.1175 43.919 69.9397 44.0409C69.7619 44.1628 69.5616 44.2487 69.3503 44.2937L62.4098 45.7884ZM70.2034 53.4956L70.1145 54.4833L66.351 54.1614C66.6611 54.55 66.8811 55.0016 66.9953 55.4842L66.1066 55.4048C66.0212 55.0902 65.883 54.792 65.6978 54.523C65.5095 54.2225 65.238 53.9822 64.9158 53.8307L64.9869 53.0283L70.2167 53.4692L70.2034 53.4956ZM67.8529 51.9524C71.1365 52.0362 73.7359 53.0988 73.7359 54.3951C73.7359 55.6914 70.9143 56.851 67.4352 56.851C63.956 56.851 61.1345 55.7487 61.1345 54.3951C61.1345 53.0415 63.8005 52.0097 67.1286 51.948C67.373 51.948 67.6129 51.948 67.8529 51.948V51.9524ZM67.8529 51.1367C71.9008 51.2425 75.1222 52.9886 75.1222 55.105C75.1222 57.3096 71.6875 59.0953 67.4574 59.0953C63.2273 59.0953 59.7926 57.3051 59.7926 55.105C59.7926 52.9048 63.0363 51.2205 67.1064 51.1367C67.3552 51.1367 67.5996 51.1367 67.8529 51.1367ZM74.7978 58.5882C75.0054 58.9355 75.1173 59.3309 75.1222 59.7346C75.1222 61.9392 71.6875 63.7029 67.4574 63.7029C63.2273 63.7029 59.7926 61.9392 59.7926 59.7346C59.7947 59.3305 59.9068 58.9344 60.117 58.5882C61.0634 60.2328 63.9871 61.4321 67.4574 61.4321C69.7502 61.4321 73.5581 60.7443 74.7978 58.5882ZM52.3233 49.0247L52.2345 50.0124L48.4932 49.6817C48.8019 50.0711 49.0217 50.5224 49.1374 51.0044L48.2488 50.9251C48.1634 50.6104 48.0252 50.3123 47.84 50.0432C47.6547 49.7408 47.3844 49.4987 47.0624 49.3466L47.0935 48.5838L52.3233 49.0247ZM49.9639 47.4771C53.252 47.5609 55.8514 48.6279 55.8514 49.9242C55.8514 51.2205 53.0298 52.3757 49.5551 52.3757C46.0804 52.3757 43.2544 51.269 43.2544 49.9066C43.2544 48.5441 45.8982 47.5256 49.2174 47.4595L49.9639 47.4771ZM49.9328 46.6614C53.9851 46.7672 57.2199 48.5133 57.2199 50.6297C57.2199 52.7461 53.7852 54.5979 49.5551 54.5979C45.325 54.5979 41.8903 52.8122 41.8903 50.6297C41.8903 48.4471 45.1473 46.732 49.2263 46.6614C49.4618 46.6614 49.6706 46.6614 49.9328 46.6614ZM57.2199 55.2593C57.2199 57.4639 53.7852 59.2496 49.5551 59.2496C45.325 59.2496 41.8903 57.4595 41.8903 55.2593C41.8913 54.8564 42.0034 54.4614 42.2147 54.1173C43.1611 55.7531 46.0849 56.9612 49.5551 56.9612C51.8257 56.9612 55.6514 56.2822 56.8955 54.1173C57.102 54.4635 57.2138 54.8571 57.2199 55.2593Z" fill="#3E3E3E"/>
</g>
<defs>
<filter id="filter0_d_143_733" x="0.5" y="0" width="96" height="96" filterUnits="userSpaceOnUse" color-interpolation-filters="sRGB">
<feFlood flood-opacity="0" result="BackgroundImageFix"/>
<feColorMatrix in="SourceAlpha" type="matrix" values="0 0 0 0 0 0 0 0 0 0 0 0 0 0 0 0 0 0 127 0" result="hardAlpha"/>
<feOffset dy="2"/>
<feGaussianBlur stdDeviation="2"/>
<feComposite in2="hardAlpha" operator="out"/>
<feColorMatrix type="matrix" values="0 0 0 0 0 0 0 0 0 0 0 0 0 0 0 0 0 0 0.25 0"/>
<feBlend mode="normal" in2="BackgroundImageFix" result="effect1_dropShadow_143_733"/>
<feBlend mode="normal" in="SourceGraphic" in2="effect1_dropShadow_143_733" result="shape"/>
</filter>
<clipPath id="clip0_143_733">
<rect width="56" height="56" fill="white" transform="translate(20.5 18)"/>
</clipPath>
</defs>
</svg>
