<svg width="97" height="96" viewBox="0 0 97 96" fill="none" xmlns="http://www.w3.org/2000/svg">
<g filter="url(#filter0_d_143_756)">
<circle cx="48.5" cy="46" r="44" fill="white"/>
</g>
<g clip-path="url(#clip0_143_756)">
<path fill-rule="evenodd" clip-rule="evenodd" d="M48.4532 40.106C53.5162 43.4498 58.0903 45.0317 62.0157 44.6567C62.7015 59.1067 57.5806 67.6395 48.5057 71.1998C39.7426 67.8674 34.5593 59.7016 34.9432 44.4379C39.5523 44.6898 44.0728 43.6515 48.4532 40.106ZM59.8512 35.0128C59.51 35.1883 59.1632 35.3832 58.822 35.5872C57.7972 36.214 56.7843 36.9787 55.7507 37.8574L53.5447 35.227C54.3059 34.4908 55.1306 33.8207 56.0056 33.228C56.7023 32.7528 57.4318 32.33 58.1843 31.9698C58.4851 31.8126 58.7859 31.6655 59.0954 31.5276C57.6418 28.8448 55.5495 26.9211 53.1804 25.7346C50.8103 24.5517 48.1579 24.0958 45.5745 24.3568C43.0086 24.6143 40.5159 25.5865 38.4564 27.2538C36.0731 29.1765 34.2629 32.0553 33.5662 35.8675L33.3475 37.0596L32.2078 37.2682C31.0911 37.4722 30.0936 37.7526 29.2186 38.1093C28.3709 38.4512 27.614 38.874 26.9534 39.372C26.4251 39.7709 25.969 40.2177 25.5818 40.702C24.3831 42.1973 23.8275 44.0732 23.8406 45.9731C23.8734 50.6264 26.8637 54.246 31.2103 54.8762H31.3415C31.5811 56.0923 31.8611 57.257 32.1793 58.3716H31.1556L30.9456 58.3522C29.7293 58.1904 28.6257 57.8918 27.6239 57.4599C23.2522 55.5737 20.5342 50.8657 20.5003 45.9822C20.4828 43.2948 21.2845 40.6211 23.017 38.4557C23.577 37.7526 24.2376 37.1075 24.9934 36.5377C25.8739 35.8721 26.8812 35.3125 28.0198 34.8521C28.804 34.533 29.6429 34.2674 30.5267 34.0543C31.5286 29.9036 33.6668 26.7079 36.4143 24.4901C38.9847 22.4148 42.0789 21.2044 45.2639 20.8865C48.4357 20.5673 51.6995 21.1281 54.6297 22.5948C57.8234 24.1961 60.6125 26.8595 62.4226 30.6068C63.1511 30.4871 63.8806 30.4256 64.6047 30.4347C67.6672 30.4586 70.6203 31.5994 72.9445 34.2104C73.4323 34.7563 73.8928 35.374 74.3259 36.0624C75.7839 38.3988 76.5309 41.5192 76.4992 44.5713C76.4675 47.5686 75.692 50.55 74.1061 52.7439C73.0725 54.173 71.7457 55.3412 70.1554 56.2678C68.6625 57.1374 66.9278 57.8052 64.9842 58.2861C65.3386 57.0485 65.6404 55.7538 65.8865 54.401C66.8468 54.0716 67.724 53.6807 68.5104 53.2237C69.7092 52.5262 70.6892 51.676 71.422 50.6549C72.5617 49.073 73.1228 46.8369 73.1457 44.5428C73.1731 42.1358 72.6076 39.7185 71.5095 37.9623C71.2069 37.474 70.8636 37.0144 70.4836 36.5889C68.8386 34.7427 66.7517 33.9346 64.5817 33.921C63.0187 33.9061 61.3923 34.3005 59.8512 35.0128ZM48.6009 45.14C52.0254 47.4011 55.1175 48.4712 57.7731 48.2182C58.2357 57.9875 54.7729 63.7577 48.6381 66.1659C48.5987 66.1511 48.5604 66.1363 48.5222 66.1203V45.2026L48.6009 45.14ZM48.4598 42.4537C52.9037 45.3895 56.9178 46.7777 60.3642 46.4494C60.5512 58.8446 56.244 65.5698 48.5057 68.851C41.0398 65.7909 36.5314 59.4942 36.6014 46.2568C40.6461 46.4779 44.6142 45.5662 48.4598 42.4537Z" fill="#3E3E3E"/>
</g>
<defs>
<filter id="filter0_d_143_756" x="0.5" y="0" width="96" height="96" filterUnits="userSpaceOnUse" color-interpolation-filters="sRGB">
<feFlood flood-opacity="0" result="BackgroundImageFix"/>
<feColorMatrix in="SourceAlpha" type="matrix" values="0 0 0 0 0 0 0 0 0 0 0 0 0 0 0 0 0 0 127 0" result="hardAlpha"/>
<feOffset dy="2"/>
<feGaussianBlur stdDeviation="2"/>
<feComposite in2="hardAlpha" operator="out"/>
<feColorMatrix type="matrix" values="0 0 0 0 0 0 0 0 0 0 0 0 0 0 0 0 0 0 0.25 0"/>
<feBlend mode="normal" in2="BackgroundImageFix" result="effect1_dropShadow_143_756"/>
<feBlend mode="normal" in="SourceGraphic" in2="effect1_dropShadow_143_756" result="shape"/>
</filter>
<clipPath id="clip0_143_756">
<rect width="56" height="56" fill="white" transform="translate(20.5 18)"/>
</clipPath>
</defs>
</svg>
