<svg width="97" height="96" viewBox="0 0 97 96" fill="none" xmlns="http://www.w3.org/2000/svg">
<g filter="url(#filter0_d_143_763)">
<circle cx="48.5" cy="46" r="44" fill="white"/>
</g>
<g clip-path="url(#clip0_143_763)">
<path fill-rule="evenodd" clip-rule="evenodd" d="M25.7462 66.9741V45.781C24.6798 46.1841 23.6817 46.1931 22.8523 45.9154C22.2051 45.7008 21.6583 45.3156 21.2572 44.8184C20.8562 44.3212 20.6014 43.7165 20.524 43.0496C20.4055 42.0144 20.7199 40.8458 21.6173 39.7484C21.6628 39.6946 21.713 39.6413 21.7722 39.5961L47.774 19.6473C48.1113 19.3427 48.6308 19.3113 49.0045 19.598L75.0661 39.5114C75.1071 39.5423 75.1435 39.5741 75.1795 39.614C76.3872 40.8906 76.6885 42.306 76.3964 43.502C76.251 44.0928 75.9639 44.6213 75.5674 45.0603C75.1709 45.4988 74.665 45.8392 74.0908 46.0408C73.1798 46.3633 72.0951 46.3543 70.9968 45.8442V66.9204H68.4447V44.7423C68.4447 44.2899 50.5677 30.4006 48.5948 28.8916C46.5035 30.4544 28.2983 44.2316 28.2983 44.8139V66.9826L25.7462 66.9741ZM46.9118 54.9169C51.8797 54.9169 55.9075 58.8756 55.9075 63.7585C55.9075 68.6413 51.8797 72.5996 46.9118 72.5996C41.9439 72.5996 37.9161 68.6413 37.9161 63.7585C37.9161 58.8756 41.9439 54.9169 46.9118 54.9169ZM50.4392 65.2447C50.2054 65.2447 50.0276 65.3114 49.9046 65.4418C49.7816 65.5761 49.7196 65.758 49.7196 66.0017C49.7196 66.2413 49.782 66.4272 49.9046 66.5598C50.0276 66.6901 50.2054 66.7555 50.4392 66.7555C50.6698 66.7555 50.8471 66.6888 50.9701 66.5598C51.0931 66.4272 51.1551 66.2413 51.1551 66.0017C51.1551 65.758 51.0927 65.5743 50.9701 65.4418C50.8512 65.3096 50.6716 65.2447 50.4392 65.2447ZM43.3849 61.2192C43.1525 61.2192 42.977 61.2859 42.854 61.4149C42.7309 61.5471 42.6689 61.7329 42.6689 61.9726C42.6689 62.214 42.7314 62.4021 42.854 62.5325C42.9765 62.6628 43.1525 62.73 43.3849 62.73C43.6187 62.73 43.7964 62.6628 43.919 62.5325C44.042 62.3981 44.1004 62.214 44.1004 61.9726C44.1004 61.7329 44.0416 61.5471 43.919 61.4149C43.8005 61.2864 43.621 61.2192 43.3849 61.2192ZM50.4387 63.6747C51.1934 63.6747 51.7995 63.8884 52.2603 64.3094C52.7183 64.7336 52.9507 65.2957 52.9507 65.9985C52.9507 66.6995 52.7183 67.2644 52.2603 67.6863C51.7995 68.1105 51.1934 68.3215 50.4387 68.3215C49.6827 68.3215 49.0752 68.1105 48.6144 67.6863C48.1564 67.2621 47.9272 66.7 47.9272 65.9985C47.9272 65.2957 48.1564 64.7336 48.6144 64.3094C49.0752 63.8879 49.6827 63.6747 50.4387 63.6747ZM43.3849 59.6487C44.1396 59.6487 44.7484 59.8597 45.2092 60.2839C45.6667 60.7081 45.8964 61.2702 45.8964 61.9721C45.8964 62.6745 45.6667 63.2366 45.2092 63.6613C44.7484 64.0841 44.1396 64.2964 43.3849 64.2964C42.6302 64.2964 42.0241 64.0823 41.5633 63.6613C41.1039 63.2371 40.8729 62.6749 40.8729 61.9721C40.8729 61.2707 41.1039 60.7058 41.5633 60.2839C42.0241 59.8597 42.6302 59.6487 43.3849 59.6487ZM48.8965 59.9802H50.9405L44.9549 67.9833H42.9091L48.8965 59.9802ZM62.7704 59.4817C62.9782 59.823 63.0894 60.1849 63.0894 60.5594C63.0894 62.1056 61.1949 63.4261 58.5375 63.9376C58.5385 63.8781 58.5394 63.818 58.5394 63.7585C58.5394 63.0955 58.4797 62.4451 58.3666 61.814C60.4612 61.4436 62.1073 60.5746 62.7704 59.4817ZM49.3313 52.5756C50.1243 51.0338 52.8523 49.8956 56.0939 49.8956C59.9558 49.8956 63.0899 51.5104 63.0899 53.5005C63.0899 55.4557 60.0611 57.0503 56.2894 57.1041C55.9645 56.6772 55.609 56.2741 55.2266 55.8983C54.8735 55.5511 54.4966 55.2268 54.0996 54.9276C54.7208 55.0163 55.3925 55.0651 56.0939 55.0651C59.2695 55.0651 61.8425 54.0743 61.8425 52.8488C61.8425 51.626 59.2695 50.6325 56.0939 50.6325C52.9188 50.6325 50.3457 51.6237 50.3457 52.8488C50.3457 52.9267 50.3558 53.0029 50.3758 53.0786C50.0112 52.9751 49.6394 52.8887 49.2602 52.8215C49.2971 52.6683 49.3304 52.5742 49.3313 52.5756ZM57.1097 54.2109L57.097 53.32C57.3016 53.312 57.4698 53.251 57.6001 53.1364C57.7323 53.0217 57.802 52.8842 57.8175 52.7216C57.8334 52.5348 57.7715 52.3722 57.6311 52.2289C57.4889 52.0864 57.2633 52.0027 56.9552 51.9767C56.6672 51.9503 56.4444 51.9973 56.2862 52.1147C56.1304 52.2289 56.0424 52.3892 56.0246 52.5935C56.0009 52.8479 56.0971 53.0875 56.3099 53.3093L56.1386 54.0197L53.5368 53.355L53.9328 51.006L54.7777 51.0773L54.6301 52.7543L55.4185 52.9608C55.3347 52.7543 55.3018 52.5474 55.3196 52.3386C55.3533 51.9462 55.5297 51.6228 55.8455 51.376C56.1614 51.1261 56.5533 51.0217 57.0168 51.0625C57.406 51.0956 57.7432 51.2363 58.0258 51.4826C58.414 51.8195 58.5854 52.2553 58.5385 52.7901C58.4997 53.2179 58.3548 53.557 58.0955 53.8065C57.8385 54.0587 57.509 54.1935 57.1097 54.2109ZM62.7964 55.905C62.9887 56.2338 63.0899 56.5805 63.0899 56.9397C63.0899 58.5863 60.9443 59.9757 58.0157 60.4062C57.7942 59.7168 57.5053 59.0557 57.158 58.4317C59.8464 58.2199 62.0317 57.2205 62.7964 55.905ZM33.9097 53.6371C33.9097 53.2416 34.0278 52.86 34.2465 52.4994C35.045 53.8145 37.1956 54.8255 39.858 55.0947C39.0659 55.6094 38.3613 56.2481 37.7753 56.9827C36.2695 56.5594 33.9097 55.4701 33.9097 53.6371ZM43.9623 44.637L43.8766 45.5808L40.2517 45.2713C40.5502 45.6453 40.758 46.0726 40.8724 46.5537L39.9997 46.4784C39.863 45.9024 39.4127 45.2247 38.8535 44.9729L38.9219 44.207L43.9623 44.637ZM47.3621 45.4948C47.3621 46.7852 44.6459 47.8338 41.2944 47.8338C37.943 47.8338 35.2263 46.7852 35.2263 45.4948C35.2263 44.2034 37.943 43.1548 41.2944 43.1548C42.6849 43.1548 47.3621 43.6068 47.3621 45.4948ZM41.2944 42.3804C45.371 42.3804 48.6791 44.0829 48.6791 46.1855C48.6791 48.2858 45.371 49.9901 41.2944 49.9901C37.2184 49.9901 33.9097 48.2858 33.9097 46.1855C33.9097 44.0825 37.2184 42.3804 41.2944 42.3804ZM48.3697 48.7216C48.5716 49.0679 48.6791 49.4338 48.6791 49.8132C48.6791 50.9644 47.6843 51.9973 46.1143 52.6956C44.9339 52.8089 43.8069 53.101 42.761 53.5435C42.287 53.5928 41.7967 53.6188 41.2949 53.6188C37.2188 53.6188 33.9102 51.9135 33.9102 49.8137C33.9102 49.4343 34.0196 49.0688 34.2196 48.7221C35.1306 50.2898 37.9544 51.4352 41.2949 51.4352C44.6354 51.4347 47.4587 50.2894 48.3697 48.7216ZM33.9097 61.4619C33.9097 61.0396 34.0437 60.6315 34.293 60.2517C34.6371 60.782 35.2008 61.2577 35.9291 61.6528C35.9127 61.8731 35.9045 62.0967 35.9045 62.3229C35.9036 62.5827 35.9141 62.8424 35.9368 63.1018C35.9241 63.3186 35.9172 63.5381 35.9172 63.7585C35.9172 63.8624 35.9186 63.9663 35.9218 64.0698C34.936 63.5309 33.9097 62.6472 33.9097 61.4619ZM33.9097 57.4929C33.9097 57.0898 34.0332 56.7023 34.2579 56.3386C34.736 57.1139 35.6853 57.7836 36.934 58.2539C36.594 58.8779 36.3356 59.5408 36.1624 60.2275C35.1065 59.7021 33.9097 58.7726 33.9097 57.4929ZM63.2266 20.9911L71.0511 21.3046V31.6911L63.2266 26.6161V20.9911Z" fill="#3E3E3E"/>
</g>
<defs>
<filter id="filter0_d_143_763" x="0.5" y="0" width="96" height="96" filterUnits="userSpaceOnUse" color-interpolation-filters="sRGB">
<feFlood flood-opacity="0" result="BackgroundImageFix"/>
<feColorMatrix in="SourceAlpha" type="matrix" values="0 0 0 0 0 0 0 0 0 0 0 0 0 0 0 0 0 0 127 0" result="hardAlpha"/>
<feOffset dy="2"/>
<feGaussianBlur stdDeviation="2"/>
<feComposite in2="hardAlpha" operator="out"/>
<feColorMatrix type="matrix" values="0 0 0 0 0 0 0 0 0 0 0 0 0 0 0 0 0 0 0.25 0"/>
<feBlend mode="normal" in2="BackgroundImageFix" result="effect1_dropShadow_143_763"/>
<feBlend mode="normal" in="SourceGraphic" in2="effect1_dropShadow_143_763" result="shape"/>
</filter>
<clipPath id="clip0_143_763">
<rect width="56" height="56" fill="white" transform="translate(20.5 18)"/>
</clipPath>
</defs>
</svg>
