<svg width="16" height="16" viewBox="0 0 16 16" fill="none" xmlns="http://www.w3.org/2000/svg">
<path d="M13.0902 5.09118C12.4841 5.09118 11.969 4.87905 11.5447 4.45481C11.1205 4.03057 10.9084 3.51542 10.9084 2.90936C10.9084 2.3033 11.1205 1.78815 11.5447 1.3639C11.969 0.93966 12.4841 0.727539 13.0902 0.727539C13.6963 0.727539 14.2114 0.93966 14.6357 1.3639C15.0599 1.78815 15.272 2.3033 15.272 2.90936C15.272 3.51542 15.0599 4.03057 14.6357 4.45481C14.2114 4.87905 13.6963 5.09118 13.0902 5.09118ZM0.726562 13.8184V2.18208H9.52656C9.47808 2.42451 9.45383 2.66693 9.45383 2.90936C9.45383 3.15178 9.47808 3.39421 9.52656 3.63663C9.61141 4.02451 9.7508 4.38499 9.94474 4.71808C10.1387 5.05166 10.375 5.34572 10.6538 5.60027L7.99929 7.27299L2.18111 3.63663V5.09118L7.99929 8.72754L11.8357 6.32754C12.0417 6.40027 12.2478 6.45481 12.4538 6.49118C12.6599 6.52754 12.872 6.54572 13.0902 6.54572C13.4781 6.54572 13.8599 6.48512 14.2357 6.3639C14.6114 6.24269 14.9569 6.06087 15.272 5.81845V13.8184H0.726562Z" fill="#3E3E3E"/>
</svg>
