<svg width="24" height="24" viewBox="0 0 24 24" fill="none" xmlns="http://www.w3.org/2000/svg">
<path d="M20.4002 11.9402C20.4002 9.60024 19.585 7.61504 17.9546 5.98464C16.325 4.35504 14.3402 3.54024 12.0002 3.54024V1.14024C13.5002 1.14024 14.9054 1.42504 16.2158 1.99464C17.5254 2.56504 18.6654 3.33544 19.6358 4.30584C20.6054 5.27544 21.3754 6.41544 21.9458 7.72584C22.5154 9.03544 22.8002 10.4402 22.8002 11.9402H20.4002ZM15.6002 11.9402C15.6002 10.9402 15.2502 10.0902 14.5502 9.39024C13.8502 8.69024 13.0002 8.34024 12.0002 8.34024V5.94024C13.6602 5.94024 15.0754 6.52504 16.2458 7.69464C17.4154 8.86504 18.0002 10.2802 18.0002 11.9402H15.6002ZM21.5402 22.8002C18.9602 22.8002 16.4454 22.2302 13.9958 21.0902C11.5454 19.9502 9.37539 18.4302 7.4858 16.5302C5.5954 14.6302 4.0754 12.455 2.9258 10.0046C1.7754 7.55504 1.2002 5.04024 1.2002 2.46024V1.83024C1.2002 1.61024 1.2202 1.40024 1.2602 1.20024H8.28019L9.39019 7.23024L5.97019 10.6802C6.81019 12.1202 7.86539 13.4702 9.13579 14.7302C10.4054 15.9902 11.8002 17.0802 13.3202 18.0002L16.8002 14.5202L22.8002 15.7202V22.7402C22.6002 22.7602 22.3902 22.7754 22.1702 22.7858C21.9502 22.7954 21.7402 22.8002 21.5402 22.8002Z" fill="#3E3E3E"/>
</svg>
