<svg width="16" height="16" viewBox="0 0 16 16" fill="none" xmlns="http://www.w3.org/2000/svg">
<g clip-path="url(#clip0_177_513)">
<path d="M13.5998 7.95977C13.5998 6.39977 13.0563 5.0763 11.9694 3.98937C10.883 2.90297 9.5598 2.35977 7.9998 2.35977V0.759766C8.9998 0.759766 9.9366 0.949632 10.8102 1.32937C11.6833 1.70963 12.4433 2.22323 13.0902 2.87017C13.7366 3.51657 14.2499 4.27657 14.6302 5.15017C15.0099 6.02323 15.1998 6.95977 15.1998 7.95977H13.5998ZM10.3998 7.95977C10.3998 7.2931 10.1665 6.72643 9.6998 6.25977C9.23314 5.7931 8.66647 5.55977 7.9998 5.55977V3.95977C9.10647 3.95977 10.0499 4.34963 10.8302 5.12937C11.6099 5.90963 11.9998 6.8531 11.9998 7.95977H10.3998ZM14.3598 15.1998C12.6398 15.1998 10.9633 14.8198 9.3302 14.0598C7.6966 13.2998 6.24994 12.2864 4.9902 11.0198C3.72994 9.7531 2.7166 8.30297 1.9502 6.66937C1.18327 5.0363 0.799805 3.35977 0.799805 1.63977V1.21977C0.799805 1.0731 0.813138 0.933099 0.839805 0.799766H5.5198L6.2598 4.81977L3.9798 7.11977C4.5398 8.07977 5.24327 8.97977 6.0902 9.81977C6.9366 10.6598 7.86647 11.3864 8.8798 11.9998L11.1998 9.67977L15.1998 10.4798V15.1598C15.0665 15.1731 14.9265 15.1832 14.7798 15.1902C14.6331 15.1966 14.4931 15.1998 14.3598 15.1998Z" fill="white"/>
</g>
<defs>
<clipPath id="clip0_177_513">
<rect width="16" height="16" fill="white"/>
</clipPath>
</defs>
</svg>
